/* XPM */
static char * Wall0_4_xpm[] = {
"128 128 5 1",
" 	c #F2F0E5",
".	c #B8B5B9",
"+	c #868188",
"@	c #B45252",
"#	c #43436A",
"                                                                                                                                ",
"                                                                                                                                ",
"   ..    ..++++++++..+.++.+++++.+...+++++....+...++...+++++....+.+...++++++++..+...+....+....++++..+++++..+++.+..+..+.+    ..   ",
"  .+..  +                                                                                                              +  ..+.  ",
"  ..+.  .                                                                                                              +  .+..  ",
"   ..  .                                                                                                                .  ..   ",
"      +                                                                               @@                                 +      ",
"     +                                                                       @@@      @@  @@@                             .     ",
"   +.                                                                      @@@       @@     @@@                            ++   ",
"  .                                                                      @@@ @       @@       @@@                            +  ",
"  +                                                                    @@@   @       @@         @@@                          .  ",
"  .                                                                  @@@            @@            @@@                        +  ",
"  .                                                                 @@              @@              @@                       .  ",
"  +                         @@@@@@@@@@@                             @@@@     @      @@            @@@@                       +  ",
"  +                       @@@@@@@@@@@@@@@                           @   @@          @@          @@@@@                        +  ",
"  +                      @@@@@@@@@@@@@@@@@                               @@@       @@         @@@@  @                        +  ",
"  +                     @@@@@@@@@@@@@@@@@@@                                @@@     @@       @@@                              +  ",
"  +                    @@@@@  @@@@@@@@@@@@@                                  @@@   @@     @@@                                +  ",
"  +                    @@@@@  @@@@@@@@@@@@@                                       @@     @@                                  +  ",
"  .                    @@@@@  @@@@@@@@@@@@@                                       @@     @                                   .  ",
"  .                    @@@@@@@@@@@@@@@@@@@@                                        @     @                                   .  ",
"  +                    @@@@@@@@@@@@@@@@@@@@                                        @                                         +  ",
"  .                    @@@@@@@@@@@@@@@@@@@@                                                                                  +  ",
"  .                    @@@@@@@@@@@@@@@@@@@@ @@@@                                   @                                         +  ",
"  .                    @@@@@@@@@@@@@@@@@@@@ @  @@                                  @                                         +  ",
"  .                      @          @@@@@@@ @   @@                                                                           .  ",
"  +                   @@@@@@@@@@@@@@@@@@@@@ @    @                                                                           +  ",
"  +                 @@@@@@@@@@@@@@@@@@@@@@@ @    @                                 @                                         .  ",
"  +                @@@@@@@@@@@@@@@@@@@@@@@@ @    @                                                                           +  ",
"  +               @@@@@@@@@@@@@@@@@@@@@@@@@ @    @@                                                                          +  ",
"  +              @@@@@@@@@@@@@@@@@@@@@@@@@  @     @                                                                          .  ",
"  .             @@@@@@@@@@@@@@@@@@@@@@@@@@  @     @                                                                          .  ",
"  .             @@@@@@@@@@@@@@@@@@@@@@@  @ @@     @                                                                          .  ",
"  +            @@@@@@@@@@@                @@      @                                                                          .  ",
"  +            @@@@@@@@@@@ @@@@@@@@@@@@@@@@       @                                                                          .  ",
"  .           @@@@@@@@@@@@ @             @        @                                                                          .  ",
"  .           @@@@@@@@@@@@ @             @        @                                                                          +  ",
"  +           @@@@@@@@@@@@ @             @        @@                                                                         .  ",
"  +           @@@@@@@@@@@@ @                     @@@                                                                         +  ",
"  .           @ @@@@@@@@@@  @                    @ @                                                                         +  ",
"  +           @  @@@@@@@@@@ @                   @@ @                                                                         +  ",
"  +               @@@@@@@@@ @                   @  @                                                                         +  ",
"  +               @@@@@@@@@ @                 @@@                                                                            +  ",
"  .           @   @  @@@@@@ @               @@@                                                                              .  ",
"  +               @    @@@@ @@            @@@      @                                                                         .  ",
"  .                     @ @ @@         @@@@                                                                                  +  ",
"  +                     @ @@@     @@@@@@                                              @@@@@@@                                +  ",
"  +                       @@     @@                                                 @@  @@@@@@                               .  ",
"  +                     @ @@     @                                                 @@@@       @                              .  ",
"  +                        @     @@@@@@@@@@@@@@@@@@@                              @@@@@@ @@@@ @                              +  ",
"  +                        @                       @                             @@@@@@    @@ @                              +  ",
"  +                        @                       @                            @@@@@@@ @@@  @@                              +  ",
"  +                        @@               @@     @                           @@@@@@@  @@@@ @@                              +  ",
"  .                        @@               @@     @                          @@@@@@@@ @   @ @@                              .  ",
"  +                        @@               @@    @@                         @@@@@@@@  @@@@ @@@                              .  ",
"  +                        @ @              @@   @@@                        @@@@@@@@@ @  @@ @@@                              .  ",
"  +                          @@                 @@ @                       @ @@@@@@@  @@@  @@@@                              .  ",
"  +                           @@              @@@  @                       @@ @@@@   @ @@ @@@@@                              +  ",
"  .                            @@           @@@                            @@@      @@@   @@@@@                              .  ",
"  .                             @@@     @@@@       @                       @@ @@@ @@ @@ @@ @@@@                              +  ",
"  +                              @@@@@@@@ @        @                       @@ @@@ @@@  @@@@ @@@                              +  ",
"  +                               @       @                                @@ @@@    @@@@@@@ @@                              +  ",
"  +                               @       @                                @@    @@@@@@@@@@@@ @                              .  ",
"  .                               @                                        @ @@@@@@@@@@@@@@@@@@                              .  ",
"  .                                                                        @    @      @      @                              .  ",
"  +                                                                                    @      @                              +  ",
"  +                                                                                    @                                     +  ",
"  +                                                                         @                @                               +  ",
"  .                  @     @                                                @       @        @                               +  ",
"  .                 @@@    @@                                                    @                                           +  ",
"  .                @@@@    @@@                                                                                               .  ",
"  +               @@@@@@   @@@@                                                                                              .  ",
"  +               @ @@@@   @@@@                                                                                              +  ",
"  +               @ @@@@@  @@@@                                                                                              +  ",
"  .               @  @@@@  @@@@                                                                                              .  ",
"  +               @  @@@@@ @@@@                                                                                              .  ",
"  +               @  @@@@@ @@@@                                                                                              .  ",
"  .               @  @@@@@ @@@@                                                                                              .  ",
"  .               @  @ @@@@ @@@                                                                             @@@@             +  ",
"  +               @  @ @@@@ @@@                                                                           @@@@@@@@           .  ",
"  +               @  @  @@@@ @@                                                                         @@@@@@@@@@@@         +  ",
"  +               @  @  @@@@ @@                                                                       @@@@@@@@@@@@@@@        .  ",
"  .               @  @   @@@  @                                                                      @@@@@@@@@@@@@@@@@       .  ",
"  +               @  @   @@@  @                                                                      @@@@@@     @@@@@@       +  ",
"  .               @  @    @@  @                                                                      @@@@@       @@@@@       +  ",
"  +               @@ @    @@ @                                                                       @@@@  @@@@@  @@@@       +  ",
"  +               @ @@     @@                                                                        @@@@  @@@@@  @@@@       +  ",
"  +               @  @     @                                                                         @@@@  @@@@@@@@@@@       +  ",
"  +               @        @                                                                         @@@@  @@@@@@@@@@@       .  ",
"  +                        @                                                                         @@@@  @@@@@@@@@@@       .  ",
"  .                        @                                                                         @@@@  @@@@@  @@@@       .  ",
"  .               @                                                                                  @@@@@  @@@   @@@@       +  ",
"  +                        @                                                                         @@@@@       @@@@@       +  ",
"  +                        @                                                                         @@@@@@@    @@@@@@       +  ",
"  +                        @                                                                         @@@@@@@@@@@@@@@@        .  ",
"  +                                                                                                  @ @@@@@@@@@@@@@         +  ",
"  +                                                                                                  @   @@@@@@@@@ @         +  ",
"  +                                                                                                  @     @@@@@@  @         .  ",
"  .                                                                                                  @      @@@ @            .  ",
"  .                                                                                                         @                .  ",
"  +                                                                                                         @      @         +  ",
"  +                                                                                                  @             @         .  ",
"  .                                                                                                                          +  ",
"   .                                                                                                                        .   ",
"    +                                                                                                                      +    ",
"     ..++.+++.++++.++....+++.+.+.++.+.++++++...+++..++.+...+++++++...++++.++.+.++..+++++.+.++...+++++++++....+++..++.+.++++     ",
"                                                                                                                                ",
"                                                                                                                                ",
"###############  #################  #################  #################  #################  #################  ################",
"################  #################  #################  #################  #################  #################  ###############",
"################  #################  #################  #################  #################  #################  ###############",
"###############  #################  #################  #################  #################  #################  ################",
"                                                                                                                                ",
"                                                                                                                                ",
"                                                                                                                                ",
"                                                                                                                                ",
"##################     ######     ######################################     ######     ########################################",
"####################     ######     ######################################     ######     ######################################",
"######################     ######     ######################################     ######     ####################################",
"######################     ######     ######################################     ######     ####################################",
"######################     ######     ######################################     ######     ####################################",
"####################     ######     ######################################     ######     ######################################",
"##################     ######     ######################################     ######     ########################################",
"                                                                                                                                ",
"                                                                                                                                ",
"                                                                                                                                ",
"                                                                                                                                ",
"                                                                                                                                "};
